<svg xmlns="http://www.w3.org/2000/svg" viewBox="0 0 512 512" fill="none">
  <path d="M256 32C132.3 32 32 132.3 32 256s100.3 224 224 224 224-100.3 224-224S379.7 32 256 32zm0 416c-106 0-192-86-192-192S150 64 256 64s192 86 192 192-86 192-192 192z" fill="#0080FF"/>
  <circle cx="256" cy="256" r="96" fill="#0080FF"/>
  <path d="M160 256l-48 48 48 48 48-48-48-48zM352 256l48-48-48-48-48 48 48 48z" fill="#0080FF"/>
  <path d="M256 160l48-48-48-48-48 48 48 48zM256 352l-48 48 48 48 48-48-48-48z" fill="#0080FF"/>
</svg>
