<svg xmlns="http://www.w3.org/2000/svg" width="2495" height="2500" viewBox="0 0 315.25 315.83"><path fill="#231f20" d="M11.629 294.082v21.189H.078v-50.748h11.551v20.559h25.735v-20.559h11.551v50.748H37.364v-21.189H11.629zm97.779-29.559V277.7c0 12.951-8.078 20.244-20.667 20.244-12.32 0-20.395-7.293-20.395-20.244v-13.177c0-12.977 8.075-20.245 20.395-20.245 12.589 0 20.667 7.268 20.667 20.245zm-29.513.184v13.177c0 5.931 3.117 9.138 8.846 9.138s8.87-3.207 8.87-9.138v-13.177c0-5.931-3.141-9.165-8.87-9.165s-8.846 3.234-8.846 9.165zm67.363 5.102h-15.098v29.462h-11.525v-50.748h27.333c10.293 0 16.566 5.904 16.566 14.673v1.916c0 8.794-6.273 14.697-16.566 14.697h.29zm-1.525-10.423c4.48 0 6.614-1.992 6.614-5.697v-1.916c0-3.705-2.134-5.697-6.614-5.697h-13.573v13.31h13.573zm65.228 30.7c0 6.404-5.144 9.664-13.063 9.664h-22.829v-50.748h21.934c7.656 0 12.641 3.155 12.641 9.665v2.573c0 4.887-2.555 7.557-6.379 8.766v.079c4.428.762 7.696 3.733 7.696 9.638v9.363zm-24.342-17.146h10.346c3.169 0 4.928-1.287 4.928-4.178v-2.573c0-2.865-1.759-4.178-4.928-4.178h-10.346v10.929zm12.827 13.023c0-3.05-1.76-4.336-5.171-4.336h-7.656v12.269h7.656c3.411 0 5.171-1.287 5.171-4.337v-3.596zm35.892 12.492h-22.855v-50.748h22.855v10.266h-11.33v10.029h9.591v10.266h-9.591v10.266h11.33v9.921zm31.119-50.748v50.748h-11.539v-50.748h11.539z"/><path d="M135.659 185.43s.542-.436.251-1.155h.025C98.901 103.307 48.256 102.49 48.256 102.49l-.025 65.291 40.698-.29c21.604 0 30.109-5.931 33.646-15.199 3.378-8.82 3.169-22.208 3.169-22.208s-.582-22.498 8.083-31.74c8.665-9.216 20.898-6.929 20.898-6.929s10.974.893 11.318 18.949c.328 17.399-16.093 21.604-16.093 21.604s-13.495 2.893-13.495 15.333v38.491l66.052-.052 8.792 1.628s14.203-3.916 14.701-22.63c.501-18.766-14.28-25.484-14.28-25.484s-11.424-4.023-11.424-17.582c0-13.548 11.082-14.99 11.082-14.99s11.501-1.286 11.501 14.859c0 16.145-13.915 16.567-13.915 16.567s-12.483.685-12.483 14.043v26.901s-.605 8.398 5.06 13.31c4.77 4.125 11.896 4.599 11.896 4.599s28.175 2.078 38.363-27.505c0 0 9.297-15.516 12.43-35.206.134-.816.104-3.943.025-6.875a175.42 175.42 0 0 0-.054-5.433c-.079-23.496-8.45-60.135-8.45-60.135s-32.123-78.609-121.79-77.845L64.745 5.24h-.108S2.005-2.24.133 62.133c.008 0 0 67.086 0 67.086s.946 56.186 50.145 115.126h.435s44.827 45.22 114.854 30.189c0 0 62.638-9.111 91.841-56.448 0 0 10.738-16.406 11.845-37.628.025-.396.08-1.943.08-1.943s-.276-1.051-.541-1.628c-13.402-29.484-57.646-31.896-57.646-31.896s-43.93 1.182-61.107 36.924c0 0-11.267 18.766-14.137 43.062-.053.423-.053.815-.104 1.262-.209 4.021-1.078 9.375-1.078 9.375 0-.052-.001-.052-.001-.104"/></svg>
