<svg xmlns="http://www.w3.org/2000/svg" viewBox="0 0 512 512" fill="none">
  <path d="M37.8 49.2C14.6 62.4 3 80.4 3 102.1v307.8c0 21.7 11.6 39.3 34.8 52.5C61.1 475.6 83.4 482 103.2 482c20.1 0 42.4-6.4 65.6-19.6L404 324c23.2-13.2 34.8-31.2 34.8-52.9s-11.6-39.7-34.8-52.9L168.8 79.8C145.6 66.6 123.3 60.2 103.2 60.2c-19.8 0-42.1 6.4-65.4 19.6zM153.1 106.8l235.2 137.4c10.7 6.2 16.1 14.8 16.1 25.8s-5.4 19.6-16.1 25.8L153.1 433.2c-10.7 6.2-21.4 9.3-32 9.3s-21.3-3.1-32-9.3c-10.7-6.2-16.1-14.8-16.1-25.8V138.6c0-11 5.4-19.6 16.1-25.8 10.7-6.2 21.4-9.3 32-9.3s21.3 3.1 32 9.3z" fill="#0078D4"/>
  <path d="M509 271.4c0 21.7-11.6 39.7-34.8 52.9l-65.2 37.7v-70.9l49.3-28.7c10.7-6.2 16.1-14.8 16.1-25.8s-5.4-19.6-16.1-25.8l-49.3-28.7v-70.9l65.2 37.7c23.2 13.2 34.8 31.2 34.8 52.9v70.6z" fill="#50E6FF"/>
</svg>
