<svg xmlns="http://www.w3.org/2000/svg" viewBox="0 0 512 512" fill="none">
  <g transform="translate(0,512) scale(0.1,-0.1)" fill="#4285F4">
    <path d="M2380 5109 c-617 -48 -1176 -315 -1593 -759 -417 -444 -672 -1012 -737 -1640 -19 -179 -8 -543 21 -715 109 -648 453 -1228 967 -1631 444 -348 976 -541 1552 -561 434 -15 842 61 1230 229 817 353 1397 1079 1551 1943 30 172 41 336 41 615 0 279 -11 443 -41 615 -154 864 -734 1590 -1551 1943 -320 138 -624 205 -980 217 -102 3 -213 6 -245 5 -33 -1 -125 -6 -205 -11z"/>
  </g>
  <circle cx="128" cy="128" r="48" fill="#EA4335"/>
  <circle cx="384" cy="128" r="48" fill="#FBBC04"/>
  <circle cx="384" cy="384" r="48" fill="#34A853"/>
  <circle cx="128" cy="384" r="48" fill="#4285F4"/>
</svg>
