<svg xmlns="http://www.w3.org/2000/svg" viewBox="0 0 512 512" fill="none">
  <path d="M448 256c0-106-86-192-192-192S64 150 64 256s86 192 192 192 192-86 192-192z" fill="#C74634"/>
  <path d="M256 96c88.4 0 160 71.6 160 160s-71.6 160-160 160S96 344.4 96 256 167.6 96 256 96m0-32C150 64 64 150 64 256s86 192 192 192 192-86 192-192S362 64 256 64z" fill="#C74634"/>
  <path d="M256 160c-53 0-96 43-96 96s43 96 96 96 96-43 96-96-43-96-96-96zm0 144c-26.5 0-48-21.5-48-48s21.5-48 48-48 48 21.5 48 48-21.5 48-48 48z" fill="#312A65"/>
</svg>
