<svg xmlns="http://www.w3.org/2000/svg" width="2500" height="1750" viewBox="0.5 0.5 999 699.242"><path fill="#00A1E0" d="M416.224 76.763c32.219-33.57 77.074-54.391 126.682-54.391 65.946 0 123.48 36.772 154.12 91.361 26.626-11.896 56.098-18.514 87.106-18.514 118.94 0 215.368 97.268 215.368 217.247 0 119.993-96.428 217.261-215.368 217.261a213.735 213.735 0 0 1-42.422-4.227c-26.981 48.128-78.397 80.646-137.412 80.646-24.705 0-48.072-5.706-68.877-15.853-27.352 64.337-91.077 109.448-165.348 109.448-77.344 0-143.261-48.939-168.563-117.574-11.057 2.348-22.513 3.572-34.268 3.572C75.155 585.74.5 510.317.5 417.262c0-62.359 33.542-116.807 83.378-145.937-10.26-23.608-15.967-49.665-15.967-77.06C67.911 87.25 154.79.5 261.948.5c62.914 0 118.827 29.913 154.276 76.263"/><path fill="#FFF" d="M145.196 363.11c-3.344 0-6.234-1.175-8.664-3.512-2.436-2.342-3.652-5.175-3.652-8.508 0-3.334 1.21-6.168 3.652-8.51 2.43-2.336 5.32-3.507 8.664-3.507s6.229 1.171 8.665 3.508c2.436 2.341 3.651 5.175 3.651 8.509 0 3.333-1.215 6.166-3.651 8.508-2.437 2.336-5.321 3.512-8.665 3.512zm186.592-54.392c-4.656 0-8.642-1.636-11.966-4.909-3.323-3.273-4.985-7.197-4.985-11.772 0-4.575 1.662-8.5 4.985-11.772 3.324-3.274 7.31-4.91 11.966-4.91s8.642 1.636 11.966 4.91c3.323 3.272 4.985 7.197 4.985 11.772 0 4.575-1.662 8.499-4.985 11.772-3.324 3.273-7.31 4.909-11.966 4.909zm168.024 127.93H358.89c-6.564 0-11.997-1.9-16.299-5.71-4.302-3.805-7.082-8.79-8.351-14.956L284.82 247.47c-.827-4.302-1.235-8.238-1.235-11.803 0-12.195 3.97-22.509 11.904-30.944 7.935-8.429 17.536-12.645 28.811-12.645 5.473 0 10.67 1.143 15.592 3.422 4.922 2.285 9.024 5.472 12.306 9.569l3.651 4.713c1.099 1.542 2.431 3.51 3.993 5.898l4.576 7.029c.548.914 1.438 2.449 2.677 4.595 5.471 9.299 10.486 17.778 15.044 25.444 4.557 7.665 8.916 14.712 13.083 21.137 4.162 6.426 7.942 12.037 11.335 16.833 3.388 4.801 6.58 8.593 9.569 11.381 1.097.822 1.99 1.552 2.676 2.194 3.387 3.014 6.364 5.336 8.936 6.975 2.566 1.636 5.333 2.879 8.302 3.727 2.968.848 6.342 1.275 10.122 1.275h92.088l-122.761 120.838zm-201.79 0l-17.899-27.755H155.95l-17.899 27.755h-19.926L233.79 197.34c3.286-5.333 7.51-9.614 12.671-12.845 5.16-3.229 10.988-4.848 17.481-4.848 6.491 0 12.319 1.619 17.481 4.848 5.161 3.23 9.385 7.512 12.671 12.845L409.76 436.648H289.22zm-84.097-37.854h67.786l-33.893-52.576-33.893 52.576zm280.807-105.542c-2.747 0-5.072-.963-6.974-2.885-1.903-1.921-2.857-4.225-2.857-6.906 0-2.68.954-4.98 2.857-6.902 1.902-1.921 4.227-2.885 6.974-2.885s5.071.964 6.974 2.885c1.903 1.922 2.857 4.222 2.857 6.902 0 2.681-.954 4.985-2.857 6.906-1.903 1.922-4.227 2.885-6.974 2.885zm53.827 12.396c-3.652 0-6.765-1.274-9.341-3.823-2.575-2.549-3.862-5.608-3.862-9.177 0-3.568 1.287-6.628 3.862-9.177 2.576-2.549 5.689-3.823 9.341-3.823s6.765 1.274 9.341 3.823c2.575 2.549 3.862 5.609 3.862 9.177 0 3.569-1.287 6.628-3.862 9.177-2.576 2.549-5.689 3.823-9.341 3.823zm185.776 131.1H609.5v-70.635h67.785c11.002 0 20.185-3.862 27.551-11.586 7.365-7.723 11.048-17.003 11.048-27.835 0-10.832-3.683-20.112-11.048-27.835-7.366-7.724-16.549-11.586-27.551-11.586H609.5v-70.635h124.335c22.004 0 40.416 7.723 55.237 23.169 14.821 15.447 22.232 34.01 22.232 55.687 0 21.676-7.411 40.239-22.232 55.686-14.821 15.447-33.233 23.17-55.237 23.17H669.75v61.4h63.585v-.001zm-50.988-119.488c2.574 2.549 5.688 3.823 9.341 3.823s6.765-1.274 9.341-3.823c2.575-2.549 3.862-5.608 3.862-9.177 0-3.568-1.287-6.628-3.862-9.177-2.576-2.549-5.689-3.823-9.341-3.823s-6.767 1.274-9.341 3.823c-2.575 2.549-3.863 5.609-3.863 9.177 0 3.569 1.288 6.628 3.863 9.177zm196.09 119.488H807.906c-11.002 0-20.186-3.862-27.551-11.585-7.365-7.724-11.048-17.004-11.048-27.836V236.913h19.926v189.504c0 3.568 1.24 6.628 3.726 9.177 2.481 2.549 5.526 3.823 9.145 3.823h133.037v-70.051l19.926-19.665v89.716zm-197.127-91.979c-2.575 2.55-5.688 3.823-9.341 3.823s-6.765-1.273-9.341-3.823c-2.575-2.549-3.862-5.609-3.862-9.177 0-3.569 1.287-6.628 3.862-9.177 2.576-2.549 5.689-3.823 9.341-3.823s6.766 1.274 9.341 3.823c2.575 2.549 3.862 5.608 3.862 9.177 0 3.569-1.287 6.628-3.862 9.177z"/></svg>
