<?xml version="1.0" encoding="iso-8859-1"?>
<!-- Uploaded to: SVG Repo, www.svgrepo.com, Generator: SVG Repo Mixer Tools -->
<svg fill="#000000" height="800px" width="800px" version="1.1" id="Capa_1" xmlns="http://www.w3.org/2000/svg" xmlns:xlink="http://www.w3.org/1999/xlink" 
	 viewBox="0 0 490 490" xml:space="preserve">
<g>
	<path d="M153,346.625h20.591c7.656,0,11.484,3.888,11.484,11.664v13.742h14.311v-16.613c0-9.241-4.187-14.131-12.546-14.64v-0.493
		c5.413-1.077,9.002-3.006,10.752-5.802c1.735-2.796,2.617-8,2.617-15.626c0-8.389-1.75-14.191-5.249-17.391
		c-3.499-3.2-9.869-4.8-19.096-4.8H138.69v75.366H153V346.625z M153,308.702h21.533c4.68,0,7.701,0.778,9.077,2.333
		c1.391,1.57,2.079,5.039,2.079,10.423c0,5.264-0.808,8.763-2.408,10.512c-1.6,1.75-4.845,2.617-9.75,2.617H153V308.702z"/>
	<polygon points="227.32,372.031 241.63,372.031 241.63,309.465 264.151,309.465 264.151,296.665 205.562,296.665 205.562,309.465 
		227.32,309.465 	"/>
	<polygon points="285.684,341.047 319.464,341.047 319.464,329.009 285.684,329.009 285.684,308.702 321.288,308.702 
		321.288,296.665 271.388,296.665 271.388,372.031 285.684,372.031 	"/>
	<path d="M77.788,0v265.111H42.189v139.615h0.001l35.59,35.591L77.788,490h370.023V102.422L345.388,0H77.788z M395.793,389.413
		H57.501v-108.99h338.292V389.413z M353.022,36.962l57.816,57.804h-57.816V36.962z"/>
</g>
</svg>