<svg width="2500" height="1133" viewBox="0 0 256 116" xmlns="http://www.w3.org/2000/svg" preserveAspectRatio="xMidYMid"><defs><radialGradient cx="49.944%" cy="50.009%" fx="49.944%" fy="50.009%" r="89.285%" gradientTransform="matrix(1 0 0 .99742 0 .001)" id="a"><stop stop-color="#F4A261" offset="0%"/><stop stop-color="#F48153" offset="100%"/></radialGradient><radialGradient cx="49.944%" cy="49.991%" fx="49.944%" fy="49.991%" r="89.294%" gradientTransform="matrix(1 0 0 .99742 0 0)" id="b"><stop stop-color="#F69B54" offset="0%"/><stop stop-color="#F79C53" offset="25.99%"/><stop stop-color="#F89D52" offset="58.42%"/><stop stop-color="#F89D52" offset="100%"/></radialGradient><radialGradient cx="49.999%" cy="49.984%" fx="49.999%" fy="49.984%" r="89.285%" gradientTransform="matrix(1 0 0 .99746 0 0)" id="c"><stop stop-color="#F69050" offset="0%"/><stop stop-color="#F68F50" offset="34.94%"/><stop stop-color="#F68E50" offset="76.29%"/><stop stop-color="#F68E50" offset="100%"/></radialGradient></defs><path d="M256 101.9c0-20.1-16.3-36.5-36.5-36.5-8.1 0-15.6 2.7-21.7 7.2.8-3.8 1.2-7.8 1.2-11.8C199 27.2 171.8 0 138.2 0c-26.7 0-49.4 17.3-57.6 41.2-4.6-3.4-10.2-5.5-16.4-5.5-15.1 0-27.3 12.2-27.3 27.3 0 2.3.3 4.6.8 6.8-20.9.7-37.7 17.9-37.7 39 0 2.5.2 4.9.7 7.2h252.5c1.8-4.4 2.8-9.1 2.8-14.1z" fill="#F38020"/><path d="M199 33.9l5.8-20.1.8.1.6 21.1L217 17.1l1 .5-5.1 20.3 15.3-14.5.8.7-10.3 18.4 18.6-9.9.6.7-14.8 15.2 20.6-4.7.4.8-18.2 10.7 21.1.8v.9l-20.4 5.6 20.3 6v.9l-21.1.3L243.7 81l-.5.9-20.4-5.1L237.2 92l-.5.9-18.2-10.5 9.7 18.5-.9.7-15-14.7 5 20.3-1 .6-10.7-18.2-.3 20.9-1.1.3-5.8-20.2-6 20.2-1.1-.3V89.6l-.6-.2-11.6 17.5 5-20.3-15.3 14.4-.9-.7 10.5-18.2-18.8 9.7-.6-.7 14.8-14.9-20.6 4.5-.3-.8 18.3-10.7-20.9-.8-.4-.9 20.3-5.7-20-5.9.1-1 21-.3-17.8-10.8.1-1 20.6 5.2-14.6-15.4.8-.8 18.4 10.1-10-18.3.6-.7 15.4 14.8-5-20.6-.2-.3L191.8 35l.2-21.2h1.2l5.8 20.1z" fill="url(#a)"/><path d="M199 33.9l5.8-20.1.8.1.6 21.1L217 17.1l1 .5-5.1 20.3 15.3-14.5.8.7-10.3 18.4 18.6-9.9.6.7-14.8 15.2 20.6-4.7.4.8-18.2 10.7 21.1.8v.9l-20.4 5.6 20.3 6v.9l-21.1.3L243.7 81l-.5.9-20.4-5.1L237.2 92l-.5.9-18.2-10.5 9.7 18.5-.9.7-15-14.7 5 20.3-1 .6-10.7-18.2-.3 20.9-1.1.3-5.8-20.2-6 20.2-1.1-.3V89.6l-.6-.2-11.6 17.5 5-20.3-15.3 14.4-.9-.7 10.5-18.2-18.8 9.7-.6-.7 14.8-14.9-20.6 4.5-.3-.8 18.3-10.7-20.9-.8-.4-.9 20.3-5.7-20-5.9.1-1 21-.3-17.8-10.8.1-1 20.6 5.2-14.6-15.4.8-.8 18.4 10.1-10-18.3.6-.7 15.4 14.8-5-20.6-.2-.3L191.8 35l.2-21.2h1.2l5.8 20.1z" fill="url(#b)"/><path d="M199 33.9l5.8-20.1.8.1.6 21.1L217 17.1l1 .5-5.1 20.3 15.3-14.5.8.7-10.3 18.4 18.6-9.9.6.7-14.8 15.2 20.6-4.7.4.8-18.2 10.7 21.1.8v.9l-20.4 5.6 20.3 6v.9l-21.1.3L243.7 81l-.5.9-20.4-5.1L237.2 92l-.5.9-18.2-10.5 9.7 18.5-.9.7-15-14.7 5 20.3-1 .6-10.7-18.2-.3 20.9-1.1.3-5.8-20.2-6 20.2-1.1-.3V89.6l-.6-.2-11.6 17.5 5-20.3-15.3 14.4-.9-.7 10.5-18.2-18.8 9.7-.6-.7 14.8-14.9-20.6 4.5-.3-.8 18.3-10.7-20.9-.8-.4-.9 20.3-5.7-20-5.9.1-1 21-.3-17.8-10.8.1-1 20.6 5.2-14.6-15.4.8-.8 18.4 10.1-10-18.3.6-.7 15.4 14.8-5-20.6-.2-.3L191.8 35l.2-21.2h1.2l5.8 20.1z" fill="url(#c)"/></svg>
