<svg height="2200" viewBox="167 78 719 563.8" width="2500" xmlns="http://www.w3.org/2000/svg"><path d="m665.2 619.1c-7.2 8.2-17.6 12.9-28.5 13-18.4 0-30.2-12.7-30.2-32.3 0-20 11.3-32.4 29.5-32.4 10.6.2 20.7 4.5 28.2 12 .2.2.6.2.8 0 .1-.1.2-.3.2-.4v-10.1c-7.4-6.7-18.2-10.7-29.2-10.7-11.4 0-21.1 4-28 11.6s-10.4 17.9-10.4 30.2c0 25 15.7 41.8 39.1 41.8 11.2 0 22.1-4.1 29.5-11v-11.1c0-.3-.3-.6-.6-.6-.1-.2-.3-.1-.4 0zm66.7 11.2c-18.2 0-31.1-13.4-31.1-31.4s12.9-31.4 31.1-31.4 31.1 13.4 31.1 31.4-12.9 31.4-31.1 31.4zm0 11.6c25.2 0 43.1-18.4 43.1-42.9s-17.9-42.9-43.1-42.9-43.1 18.4-43.1 42.9 18 42.9 43.1 42.9zm81.3-.8v-52.4c0-14.4 9.4-20.4 18.8-20.4 9.1 0 16 6.2 16 18.3v54.5h12.4v-56.1c0-16.9-10.1-26.6-25.2-26.6-9.8 0-17 4.4-21.9 11.8v-10.4h-12.4v81.3zm88.8-36.1v-9.4c5.3-3.9 14.7-10.9 14.7-19s-6.5-13.8-14-13.8c-5.6.1-10.8 3-13.6 7.7l7.8 6.2c1.4-2.5 4-4.2 7-4.3 3 0 6.1 1.9 6.1 5.6 0 2.7-3 6.1-16.1 15.3v11.7h28.3v-11h-20.2z" fill="#949495"/><path d="m724.4 396.5-6.7-38.7c-1.6-9.6-8.3-18-18.2-22.7l-38.5-18.2-95.1 97.5v61.5l160.7 13.5c8.5.7 16.1-5.5 16.5-13.8v-.8c.4-7.5-4.9-14.1-12.4-15.4l-62.1-10.3c-3-.5-5.1-3.2-4.6-6.1.4-2.6 2.7-4.5 5.3-4.5h47c7.6 0 13.9-6.1 13.9-13.6s-6.3-13.6-13.9-13.6h-23.7c-3 0-5.5-2.4-5.5-5.4 0-2.7 2-5 4.6-5.4l27-4c7.5-1.1 13.1-7.5 13.1-15s-5.5-13.9-13.1-15l-35.5-2.9c-3-.3-5.2-2.8-5.2-5.8 0-3.1 2.5-5.6 5.5-5.6h40.1c7.6 0 13.9-6.1 13.9-13.6s-6.2-13.6-13.9-13.6h-42c-3 0-5.5-2.4-5.5-5.4s2.5-5.4 5.5-5.4h53.4c7.6 0 13.9-6.1 13.9-13.6s-6.3-13.6-13.9-13.6h-58.1c-2.9-.1-5.4-2-6.1-4.7l-2.1-7.8c-2.3-8.4-9.7-14.3-18.5-14.3h-28.8l-127.9 127.9 81.8 73.7c6.9 6.2 17.5 5.8 23.9-.9l65.1-68.8 8 45.7c1.7 9.4 8.7 17.2 18 20l89.2 26.7c8 2.4 16.4-2.8 18.5-11.4v-.6c1.8-7.9-2.9-15.6-10.7-17.4l-69.8-16.3c-2.9-.7-4.8-3.5-4.2-6.3.6-2.6 3-4.4 5.6-4.3h43.9c7.6 0 13.9-6.1 13.9-13.6s-6.3-13.6-13.9-13.6h-21.2c-3 0-5.5-2.4-5.5-5.4 0-2.8 2.1-5.1 4.8-5.5l24.8-3.3c7.5-1 13.2-7.3 13.2-14.8s-5.7-13.8-13.2-14.8l-35.7-5c-3-.4-5.1-3.1-4.7-6 .3-2.7 2.6-4.7 5.3-4.7h38c7.6 0 13.9-6.1 13.9-13.6s-6.3-13.6-13.9-13.6h-44.1c-3 0-5.5-2.4-5.5-5.4s2.5-5.4 5.5-5.4h56.4c7.6 0 13.9-6.1 13.9-13.6s-6.2-13.6-13.9-13.6h-72.9c-2.8 0-5.2-1.9-5.9-4.6l-1.9-7.2c-2.4-9.1-10.5-15.4-20-15.4h-24.3l-3.7 3.7-93.7 93.7v44.7l130.9 116.5c6.8 6.1 17.2 5.7 23.6-.8l66.4-66.4 8.3 48.1c1.6 9.6 8.3 18 18.2 22.7l79.2 37.5c7.7 3.6 16.7 0 19.8-7.9v-.5c2.8-7-1.1-14.7-8.4-17l-60.8-18.8c-2.9-.9-4.5-3.8-3.7-6.6.8-2.5 3.1-4.2 5.7-4.2h42c7.6 0 13.9-6.1 13.9-13.6s-6.3-13.6-13.9-13.6h-19.4c-3 0-5.5-2.4-5.5-5.4 0-2.8 2.1-5.2 4.9-5.5l25.3-2.7c7.5-.8 13.4-7 13.4-14.5s-5.9-13.6-13.4-14.5l-37.1-4.4c-3-.4-5.2-2.9-5.2-5.9 0-3 2.4-5.5 5.4-5.5h39.8c7.6 0 13.9-6.1 13.9-13.6s-6.2-13.6-13.9-13.6h-46.5c-3 0-5.5-2.4-5.5-5.4s2.5-5.4 5.5-5.4h59.7c7.6 0 13.9-6.1 13.9-13.6s-6.3-13.6-13.9-13.6h-74.6c-2.9-.1-5.4-2.1-6-5l-1.7-8.1c-2.1-9.9-10.6-17-20.8-17h-23.1l-2.8 2.8-51.8 51.8v86.9l79.8 72.6c6.9 6.3 17.8 5.8 24.2-1l63.5-68 7.3 42.3c1.5 8.6 7.4 16.1 16.3 20.5l105.1 51.7c8.3 4.1 18.2.9 22-7v-.8c3.4-7.6-.5-16.4-8.4-19.2l-71.6-25c-2.9-1-4.3-4.2-3.3-7 .9-2.4 3.2-3.9 5.7-3.9h45.3c7.6 0 13.9-6.1 13.9-13.6s-6.2-13.5-13.9-13.5h-18.2c-3 0-5.5-2.4-5.5-5.4 0-2.9 2.2-5.3 5.1-5.5l26.1-2.2c7.5-.6 13.5-6.8 13.5-14.3s-6-13.6-13.5-14.3l-39.5-3.7c-3-.3-5.3-2.7-5.3-5.7s2.3-5.4 5.2-5.7h42c7.6 0 13.9-6.1 13.9-13.6s-6.3-13.6-13.9-13.6h-49.4c-3 0-5.5-2.4-5.5-5.4s2.5-5.4 5.5-5.4h63.4c7.6 0 13.9-6.1 13.9-13.6s-6.3-13.6-13.9-13.6h-79.4c-2.9 0-5.3-2-6-4.8l-1.4-6.4c-2.1-9.6-10.4-16.5-20.3-16.9h-41.3l-35.7 35.7v106l60.3 54.7c7 6.3 17.9 5.8 24.4-.9l52.1-54.1 6.2 35.5c1.5 8.6 7.4 16.1 16.3 20.5l122.6 58.1c8.3 3.9 18.1.6 21.8-7.3v-.8c3.3-7.6-.7-16.3-8.7-19z" fill="#00A3FF"/><path d="m456.9 242.6c-1.5 0-2.9-.6-4-1.7s-1.7-2.5-1.7-4 .6-2.9 1.7-4 2.5-1.7 4-1.7 2.9.6 4 1.7 1.7 2.5 1.7 4-.6 2.9-1.7 4-2.5 1.7-4 1.7z" fill="#00C8DC"/><path d="m685.3 188.5c-4.1 0-7.8-1.7-10.5-4.4-2.7-2.7-4.4-6.4-4.4-10.5 0-16 1.8-35.8-6.2-52.9-5.7-12.2-15.9-21.5-32.7-29.2-1.6-.7-3.1-1.9-4.1-3.5-1-1.5-1.6-3.2-1.6-5.1 0-4.2 2.7-7.8 6.7-9.1 2.3-.8 4.7-.5 6.8.5 19.1 8.7 32.1 20.4 39.7 35.7 9.6 19.4 7.6 42.2 7.5 42.7-.1 4.1-1.8 7.7-4.6 10.4-2.8 2.7-6.4 4.3-10.5 4.4h-.1c.1 10.4-4.1 20.3-11.5 27.7s-17.3 11.5-27.7 11.5c-10.4 0-20.3-4.1-27.7-11.5s-11.5-17.3-11.5-27.7c0-10.4 4.1-20.3 11.5-27.7 6.7-6.7 15.3-10.6 24.5-11.3.5-21 2-100.2-60.4-100.2s-60.9 79.2-60.4 100.2c9.2.7 17.7 4.6 24.5 11.3 7.4 7.4 11.5 17.3 11.5 27.7s-4.1 20.3-11.5 27.7-17.3 11.5-27.7 11.5c-10.4 0-20.3-4.1-27.7-11.5s-11.5-17.3-11.5-27.7h-.1c-4.1 0-7.8-1.7-10.5-4.4s-4.4-6.4-4.4-10.5c0-.6-2.1-23.3 7.5-42.7 7.5-15.2 20.6-27 39.7-35.7 2.1-1 4.5-1.3 6.8-.5 4 1.3 6.7 4.9 6.7 9.1 0 1.8-.6 3.6-1.6 5.1s-2.5 2.8-4.1 3.5c-16.9 7.7-27 17-32.7 29.2-8 17.1-6.2 36.9-6.2 52.9 0 4.2-1.7 7.8-4.4 10.5s-6.4 4.4-10.5 4.4c-4.1 0-7.8-1.7-10.5-4.4s-4.4-6.4-4.4-10.5c-.1-28.8 1.6-100.9 71.7-113.3 13.7-35.1 37.2-60.6 67.2-60.6s53.5 25.5 67.2 60.6c70.1 12.3 71.8 84.5 71.7 113.3 0 4.1-1.7 7.8-4.4 10.5s-6.4 4.5-10.5 4.5z" fill="#006EFF"/></svg>
